<?xml version="1.0" encoding="utf-8"?>
<!-- Generator: Adobe Illustrator 21.0.2, SVG Export Plug-In . SVG Version: 6.00 Build 0)  -->
<svg version="1.1" id="Layer_1" xmlns="http://www.w3.org/2000/svg" xmlns:xlink="http://www.w3.org/1999/xlink" x="0px" y="0px"
	 viewBox="0 0 200 200" style="enable-background:new 0 0 200 200;" xml:space="preserve">
<style type="text/css">
	.st0{fill:none;stroke:#000000;stroke-width:3;stroke-miterlimit:10;}
	.st1{fill:none;stroke:#000000;stroke-miterlimit:10;}
	.st2{fill:#FFFFFF;stroke:#000000;stroke-width:3;stroke-miterlimit:10;}
	.st3{fill:none;stroke:#000000;stroke-width:2;stroke-miterlimit:10;}
</style>
<path class="st0" d="M8.2,198.3C40.2,161,157.4,6,157.4,6v192.3"/>
<path class="st1" d="M103,198.3c1-3.1,0-92.8,0-92.8h55.2c3.8,1.1,20.6,6.4,27.6,18.8c1.6,2.8,8.6,15.2-3,25.7
	c-8.2,7.4-20.8,9.5-24.7,10"/>
<line class="st2" x1="151.4" y1="160.1" x2="189.4" y2="198.3"/>
<path class="st1" d="M20.7,198.3c29.3-34.6,136.7-178,136.7-178v178"/>
<path class="st0" d="M95.6,198.3c1-3.1,0-92.8,0-92.8h54.9c3.7,1.1,20.5,6.4,27.5,18.8c1.6,2.8,8.6,15.2-2.9,25.7
	c-8.1,7.4-20.7,9.5-24.5,10"/>
<path class="st3" d="M157.4,34.6c-8.5-1.1-26.1-2.4-45.6,4.7C77.3,51.8,65,80.3,62.8,85.7c-2.7,6.5-11.2,27.5-1.2,49.5
	c2.4,5.4,9.9,21.8,28,27.6c5.2,1.7,10,2.1,13.3,2.1"/>
<path class="st1" d="M151.4,34.1c-8.7-1.2-26.7-2.5-46.7,4.9c-35.4,13.2-48,43.2-50.2,48.9c-2.7,6.9-11.5,29-1.2,52.2
	c2.5,5.6,10.2,22.9,28.7,29.1c5.4,1.8,10.2,2.2,13.6,2.2"/>
</svg>
